<?xml version="1.0" encoding="utf-8"?>
<!-- Generator: Adobe Illustrator 24.1.1, SVG Export Plug-In . SVG Version: 6.00 Build 0)  -->
<svg version="1.1" id="Capa_1" xmlns="http://www.w3.org/2000/svg" xmlns:xlink="http://www.w3.org/1999/xlink" x="0px" y="0px"
	 viewBox="0 0 436.1 45.9" style="enable-background:new 0 0 436.1 45.9;" xml:space="preserve">
<style type="text/css">
	.st0{fill:#0B499D;}
</style>
<polyline class="st0" points="3.9,1.2 0,15.6 12.3,15.6 4.8,44.7 23.7,44.7 31.3,15.6 43.5,15.6 47.4,1.2 3.9,1.2 "/>
<path class="st0" d="M75.4,0C64.3,0,55.2,1.1,50,9.4c-4.3,6.9-6.9,16.2-6.9,22.4c0,13.6,10.1,14,23.7,14c8.7,0,20.2-0.6,24.9-8.1
	c4.8-7.3,7.4-17.5,7.4-23.7C99.1,0.4,86.4,0,75.4,0 M76.1,30.2c-1.8,3.3-3.7,4.1-8.1,4.1c-2.5,0-5.5-1-5.5-5.5c0-2.2,1.4-7.1,3-10.1
	c2.2-4.1,4.7-4.3,7.7-4.3c4.2,0,5.9,1.9,5.9,5.1C79.1,24.3,76.8,29,76.1,30.2z"/>
<polyline class="st0" points="133.9,1.2 122.7,20.3 122.5,20.3 120.2,1.2 99.8,1.2 108.9,34.7 101.5,44.7 123.8,44.7 155.5,1.2 
	133.9,1.2 "/>
<path class="st0" d="M179.1,0c-11.1,0-20.2,1.1-25.4,9.4c-4.3,6.9-6.9,16.2-6.9,22.4c0,13.6,10.1,14,23.7,14
	c8.7,0,20.2-0.6,24.9-8.1c4.8-7.3,7.4-17.5,7.4-23.7C202.8,0.4,190.2,0,179.1,0 M179.9,30.2c-1.8,3.3-3.7,4.1-8.1,4.1
	c-2.5,0-5.5-1-5.5-5.5c0-2.2,1.4-7.1,3-10.1c2.2-4.1,4.7-4.3,7.7-4.3c4.2,0,5.9,1.9,5.9,5.1C182.8,24.3,180.5,29,179.9,30.2z"/>
<polyline class="st0" points="218.3,1.2 214.4,15.6 226.7,15.6 219.1,44.7 238.1,44.7 245.6,15.6 257.9,15.6 261.8,1.2 218.3,1.2 
	"/>
<polyline class="st0" points="264.7,1.2 253.1,44.7 271.5,44.7 283.3,1.2 264.7,1.2 "/>
<path class="st0" d="M332.5,10.9c0-6.1-1.8-9.7-10.1-9.7h-35.9l-11.9,43.5h18.6l3.8-15.1l9,15.1h21.7l-12.6-17.8h3.3
	C326.4,26.8,332.5,21.8,332.5,10.9 M307.6,22.4h-8.3l2.3-9h8.1c2.6,0,4,1,4,3C313.7,19.2,311.9,22.4,307.6,22.4z"/>
<polyline class="st0" points="382.1,15 385.7,1.2 340.8,1.2 329.6,44.7 374.4,44.7 377.4,33.1 351.4,33.1 352.5,29.2 378.4,29.2 
	380.8,19.8 354.9,19.8 356.1,15 382.1,15 "/>
<path class="st0" d="M414.6,13.8c6,0,11.8,0.6,17.7,1.3l3.8-13.4c-8.9-1.3-18.7-1.6-24.8-1.6c-4.5,0-10.4,0.1-14.5,1.3
	c-7.3,2.1-12.2,9.7-12.2,19c0,6.8,6.2,8.7,11.8,8.7c10.9,0,12,0.4,12,2.5c0,2.8-4.3,2.8-6.3,2.8c-7,0-13.9-0.5-20.8-1.4l-2.7,10.9
	c8.1,1.5,16.4,2,26.1,2c12,0,18.1-1.2,21.9-7.3c1.3-2.1,2.9-6.8,2.9-10.1c0-9.1-6.1-9.4-13-9.4c-9.6,0-10.8-0.5-10.8-2.2
	C405.7,14.8,407.4,13.8,414.6,13.8"/>
</svg>
